<svg width="110" height="72" viewBox="0 0 110 72" fill="none" xmlns="http://www.w3.org/2000/svg">
<path d="M108.56 6.84745H106.741C104.492 6.84745 102.373 7.89605 101.006 9.68081L82.3879 34.0276L63.7699 9.68081C62.4067 7.89605 60.2859 6.84745 58.0389 6.84745H56.2199L79.6979 37.5479L55.717 68.9075H57.536C59.7852 68.9075 61.9038 67.8588 63.2691 66.0741L82.39 41.0703L101.511 66.0741C102.876 67.8588 104.995 68.9075 107.244 68.9075H109.063L85.0821 37.5479L108.56 6.84745ZM47.6985 56.5853C42.2329 64.8907 31.473 69.1471 21.186 65.3936C12.1359 62.0916 6.42 53.095 6.42 43.4607V41.0875H32.1H55.64V32.2407C55.64 18.32 45.3295 6.13269 31.4687 4.82943C15.5642 3.33357 2.14 15.8569 2.14 31.4575V43.3837C2.14 54.8776 9.0201 65.5626 19.8357 69.4553C33.9661 74.5399 48.8284 66.9515 53.8531 53.9274H52.4878C50.5382 53.9274 48.7685 54.9568 47.6985 56.5853ZM6.42 31.4575C6.42 19.0669 16.4994 8.98745 28.89 8.98745C41.2806 8.98745 51.36 19.0669 51.36 31.4575V36.8074H6.42V31.4575Z" fill="#A5C255"/>
</svg>
