<svg width="40" height="86" viewBox="0 0 40 86" fill="none" xmlns="http://www.w3.org/2000/svg">
<g clip-path="url(#clip0_253_30)">
<path d="M27.6696 9.5853C24.0443 5.30287 20.9224 0.95351 20.2846 0.0501847C20.2175 -0.0167282 20.1168 -0.0167282 20.0496 0.0501847C19.4118 0.95351 16.29 5.30287 12.6646 9.5853C-18.4531 49.0973 17.5656 75.7623 17.5656 75.7623L17.8677 75.963C18.1362 80.0783 18.8076 86 18.8076 86H20.1503H21.4931C21.4931 86 22.1645 80.1117 22.433 75.963L22.7351 75.729C22.7687 75.729 58.7873 49.0973 27.6696 9.5853ZM20.1503 75.16C20.1503 75.16 18.5391 73.7883 18.1027 73.0857V73.019L20.0496 29.9938C20.0496 29.8599 20.2511 29.8599 20.2511 29.9938L22.198 73.019V73.0857C21.7616 73.7883 20.1503 75.16 20.1503 75.16Z" fill="#26A0B9"/>
</g>
<defs>
<clipPath id="clip0_253_30">
<rect width="40" height="86" fill="white"/>
</clipPath>
</defs>
</svg>
